# xmcd
#
# Track frame offsets:
#	150
#	1141
#	18064
#	26464
#	46415
#	64488
#	83770
#	93211
#	106601
#	123629
#	136104
#	160246
#	179981
#	196647
#	208366
#
# Disc length: 2958 seconds
#
# Revision: 0
# Processed by: cddbd v1.4PL0 Copyright (c) Steve Scherf et al.
# Submitted via: dBpowerAMP V4.0
#
DISCID=be0b8c0f
DTITLE=Everywhere West - Echoes from the Past
DYEAR=1900
DGENRE=Country
TTITLE0=Introduction by Rex Allen
TTITLE1=Can You Hear Those Pioneers
TTITLE2=Down the Trail to San Antone
TTITLE3=Ponies
TTITLE4=El Paso/Streets of Laredo/Big Iron
TTITLE5=Blue Moon on the River
TTITLE6=Beaumont Rag
TTITLE7=Twilight on the Trail
TTITLE8=Everywhere West
TTITLE9=Minor Swing
TTITLE10=Desert Skies
TTITLE11=Shawnee Trail
TTITLE12=The Man Who Shot Liberty Valance
TTITLE13=Boogie on Down the Trail
TTITLE14=(They Call the Wind) Mariah
EXTD=
EXTT0=
EXTT1=
EXTT2=
EXTT3=
EXTT4=
EXTT5=
EXTT6=
EXTT7=
EXTT8=
EXTT9=
EXTT10=
EXTT11=
EXTT12=
EXTT13=
EXTT14=
PLAYORDER=
